<svg viewBox="0 0 293 456" fill="none" xmlns="http://www.w3.org/2000/svg">
<path opacity="0.1" d="M134 77.693C133.958 60.2796 128.807 43.2614 119.186 28.747C109.646 14.2937 96.022 3.00477 80.0475 -3.68344C69.0474 -8.08983 57.2712 -10.2315 45.4239 -9.98019C33.5766 -9.7289 21.9018 -7.08984 11.0984 -2.22099C0.295017 2.64786 -9.41491 9.6464 -17.4501 18.3557C-25.4853 27.065 -31.6806 37.3059 -35.665 48.4656C-40.1984 60.7039 -41.876 73.8161 -40.5698 86.8016C-39.3672 99.7 -35.3342 112.174 -28.7583 123.336C-22.0331 134.448 -12.9843 143.974 -2.2325 151.262C9.75563 159.209 23.4969 164.122 37.8064 165.576C52.1171 166.989 66.5557 164.858 79.8473 159.37C90.5457 154.731 100.159 147.913 108.075 139.351C116.256 131.296 122.759 121.7 127.209 111.117C131.659 100.534 133.967 89.1735 134 77.693Z" fill="white"/>
<path opacity="0.1" d="M258.709 78C225.517 78 184.804 108.076 168.459 144.968C168.459 144.968 130.654 230.383 46.8217 230.383C18.2622 230.352 -9.32916 220.03 -30.8935 201.31C-48.9505 185.712 -63.6537 166.613 -74.1133 145.169C-90.3583 108.376 -131.171 78.3008 -164.363 78.3008C-197.555 78.3008 -209.187 106.572 -189.132 141.56L10.822 489.834C30.8776 524.722 63.5681 524.722 83.4231 489.834L282.976 141.76C302.931 106.572 292.201 78 258.709 78Z" fill="white"/>
</svg>
