<svg viewBox="0 0 24 17" fill="none" xmlns="http://www.w3.org/2000/svg">
<path d="M0 1.33333C0 0.596954 0.596954 0 1.33333 0H22.6667C23.403 0 24 0.596954 24 1.33333C24 2.06971 23.403 2.66667 22.6667 2.66667H1.33333C0.596954 2.66667 0 2.06971 0 1.33333ZM0 14.8333C0 14.097 0.596954 13.5 1.33333 13.5H22.6667C23.403 13.5 24 14.097 24 14.8333C24 15.5697 23.403 16.1667 22.6667 16.1667H1.33333C0.596954 16.1667 0 15.5697 0 14.8333Z" fill="#1E1E1E"/>
<path d="M22.6667 7H1.33333C0.596954 7 0 7.59695 0 8.33333C0 9.06971 0.596954 9.66667 1.33333 9.66667H22.6667C23.403 9.66667 24 9.06971 24 8.33333C24 7.59695 23.403 7 22.6667 7Z" fill="#1E1E1E"/>
</svg>
