<svg width="27" height="27" viewBox="0 0 27 27" fill="none" xmlns="http://www.w3.org/2000/svg">
<rect width="27" height="27" fill="white"/>
<g clip-path="url(#clip0_8_8)">
<path d="M17.482 4.44654C17.482 3.57228 17.2265 2.70695 16.7508 1.97543C16.275 1.24391 15.6054 0.672962 14.8125 0.333964C14.0284 0.00388885 13.1561 -0.0763999 12.3103 0.0930986C11.4734 0.271518 10.6981 0.699725 10.099 1.32419C9.64083 1.78809 9.29722 2.35011 9.07697 2.96565C8.85671 3.5812 8.77741 4.24135 8.83909 4.90151C8.90076 5.55274 9.1034 6.18613 9.43819 6.74815C9.77299 7.31017 10.2135 7.7919 10.7509 8.15766C11.3412 8.55911 12.0196 8.80889 12.7244 8.88026C13.4293 8.95163 14.1429 8.84458 14.8037 8.56803C15.3323 8.33608 15.8081 8.00601 16.2045 7.5778C17.0239 6.74815 17.482 5.61518 17.482 4.44654Z" fill="#5152FB"/>
<path d="M3.65869 11.5029L11.3678 25.2055C12.3369 26.963 13.9756 26.963 14.9536 25.2055L18.3368 19.175C13.5175 20.3793 6.38991 16.3559 3.65869 11.5029Z" fill="#FDBC42"/>
<path d="M23.6323 4.44629C21.9848 4.44629 19.976 5.96285 19.1655 7.81842C19.1655 7.81842 17.2888 12.1272 13.1568 12.1272C11.7383 12.1272 10.3639 11.6009 9.28906 10.6464C10.6459 12.3324 15.2713 15.9811 22.1081 12.4752L24.8217 7.65784C25.8173 5.88257 25.2711 4.44629 23.6323 4.44629Z" fill="#5152FB"/>
<path d="M9.2885 10.6386C8.39865 9.85351 7.66739 8.89005 7.15638 7.81061C6.34583 5.95505 4.33706 4.43848 2.69833 4.43848C1.04197 4.4474 0.50454 5.88368 1.50011 7.65003L3.65866 11.495C6.38988 16.348 13.5175 20.3803 18.3544 19.167L22.1164 12.4763C15.2619 15.9823 10.6453 12.3336 9.2885 10.6386Z" fill="#FA4769"/>
</g>
<defs>
<clipPath id="clip0_8_8">
<rect width="25" height="27" fill="white" transform="translate(1)"/>
</clipPath>
</defs>
</svg>
